<svg width="500" height="400" viewBox="0 0 500 400" xmlns="http://www.w3.org/2000/svg">
  <!-- Background -->
  <rect width="500" height="400" fill="#f8f8f8" rx="20" ry="20"/>
  
  <!-- YouTube player frame -->
  <rect x="50" y="50" width="400" height="240" rx="10" ry="10" fill="#ffffff" stroke="#e5e5e5" stroke-width="2"/>
  
  <!-- YouTube player controls bar -->
  <rect x="50" y="250" width="400" height="40" rx="0" ry="0" fill="#f2f2f2" stroke="#e5e5e5" stroke-width="2"/>
  
  <!-- Random video thumbnails -->
  <rect x="70" y="70" width="360" height="160" rx="5" ry="5" fill="#ff0000" opacity="0.8"/>
  <circle cx="250" cy="150" r="40" fill="#ffffff"/>
  <polygon points="235,130 235,170 275,150" fill="#ff0000"/>
  
  <!-- Random recommendation symbols -->
  <circle cx="100" cy="330" r="25" fill="#ff0000" opacity="0.7"/>
  <circle cx="175" cy="330" r="25" fill="#4285f4" opacity="0.7"/>
  <circle cx="250" cy="330" r="25" fill="#34a853" opacity="0.7"/>
  <circle cx="325" cy="330" r="25" fill="#fbbc05" opacity="0.7"/>
  <circle cx="400" cy="330" r="25" fill="#ea4335" opacity="0.7"/>
  
  <!-- Connection lines representing recommendations -->
  <path d="M 100 305 L 100 290 L 250 210" stroke="#ff0000" stroke-width="2" fill="none" stroke-dasharray="5,5"/>
  <path d="M 175 305 L 175 280 L 250 210" stroke="#4285f4" stroke-width="2" fill="none" stroke-dasharray="5,5"/>
  <path d="M 250 305 L 250 260 L 250 210" stroke="#34a853" stroke-width="2" fill="none" stroke-dasharray="5,5"/>
  <path d="M 325 305 L 325 280 L 250 210" stroke="#fbbc05" stroke-width="2" fill="none" stroke-dasharray="5,5"/>
  <path d="M 400 305 L 400 290 L 250 210" stroke="#ea4335" stroke-width="2" fill="none" stroke-dasharray="5,5"/>
</svg> 